:SAMPLES-PER-SECOND 30
:FRAME-RANGE 1-663
:FULLY-SPECIFIED
:DEGREES
373
root  -19.0313 37.8964 5.8492 178.414 54.6897 177.861
RightUpLeg  -8.06689 25.2167 -9.98876
RightLeg  49.5035 6.29271 7.51282
RightFoot  -14.6935 0.0115098 3.79587
RightToes  -3.4386e-010 1.2921e-014 -6.02303e-014
Spine  -3.97516 -5.65837 -10.1019
Spine1  5.43818 -6.76051 2.98013
HEad  13.8904 -25.0691 11.2746
LeftShoulder1  2.39562 -7.56058 -15.4998
LeftArm  1.79703 -30.1908 -60.6499
LeftForeArm  17.4342 -6.67412 -11.6099
LeftHand  -0.0718338 3.7172 3.80099
RightShoulder  1.31209 0.911837 24.9776
RightArm  -20.69 9.42639 48.9906
RightForeArm  6.54773 37.8492 8.31595
RightHand  0.291221 -8.52034 -11.8339
LeftUpLeg  -22.6987 -10.3262 9.42039
LeftLeg  24.8111 -4.5889 -1.96422
LeftFoot  -7.70059 0.488307 -13.8623
LeftToes  -7.12384e-010 -7.51861e-011 -8.34901e-011
374
root  -19.0767 38.2457 4.72526 177.734 57.3422 177.063
RightUpLeg  -10.6809 23.7775 -10.4888
RightLeg  53.4383 2.54354 3.30058
RightFoot  -9.26347 -0.102986 2.21241
RightToes  -3.4386e-010 1.2921e-014 -6.02303e-014
Spine  -3.58923 -5.918 -10.5106
Spine1  5.18376 -7.18578 3.86142
HEad  14.6456 -22.6207 10.0112
LeftShoulder1  2.4127 -7.91827 -14.8964
LeftArm  2.11196 -32.6976 -60.3041
LeftForeArm  15.3219 -8.21556 -11.1125
LeftHand  -0.0714563 3.53513 3.44276
RightShoulder  1.36044 1.12459 24.564
RightArm  -20.7386 11.7537 49.1114
RightForeArm  4.93195 37.0509 8.17516
RightHand  0.343336 -9.00925 -11.9433
LeftUpLeg  -20.4088 -9.0003 7.11923
LeftLeg  23.5139 -3.02645 -1.09433
LeftFoot  -6.70813 0.465811 -10.5008
LeftToes  -7.12384e-010 -7.51861e-011 -8.34901e-011
375
root  -19.1429 38.5564 3.6766 177.613 60.3911 176.772
RightUpLeg  -12.9422 21.4501 -10.298
RightLeg  55.6002 -1.36264 -2.55911
RightFoot  -7.41819 -0.0669709 0.485992
RightToes  -3.4386e-010 1.2921e-014 -6.02303e-014
Spine  -3.53622 -5.91029 -10.2114
Spine1  5.32464 -7.30985 4.42121
HEad  14.6179 -20.6874 8.93065
LeftShoulder1  2.46682 -8.3723 -14.4871
LeftArm  1.08941 -35.638 -59.621
LeftForeArm  13.9882 -8.6441 -10.7407
LeftHand  -0.0699857 3.5398 3.35318
RightShoulder  1.38755 1.32985 23.7537
RightArm  -20.9404 14.6032 49.3392
RightForeArm  4.94357 35.4882 7.72069
RightHand  0.354345 -9.05908 -12.1225
LeftUpLeg  -18.5826 -7.85702 5.51977
LeftLeg  22.4431 -1.26324 -0.224966
LeftFoot  -6.31794 0.446537 -9.30329
LeftToes  -7.12384e-010 -7.51861e-011 -8.34901e-011
376
root  -19.203 38.7698 2.78107 177.403 63.6716 176.091
RightUpLeg  -14.9245 19.7351 -10.0185
RightLeg  55.9272 -3.15445 -5.42958
RightFoot  -9.59935 -0.0855398 1.34496
RightToes  -3.4386e-010 1.2921e-014 -6.02303e-014
Spine  -2.9225 -5.96872 -10.169
Spine1  4.61338 -7.38842 4.52502
HEad  14.7151 -18.264 8.41897
LeftShoulder1  2.40121 -8.56394 -13.5033
LeftArm  0.180704 -38.0868 -58.2149
LeftForeArm  12.2368 -9.12451 -10.4024
LeftHand  -0.0573059 3.25866 2.25081
RightShoulder  1.4874 1.6799 23.6652
RightArm  -19.9143 17.4371 49.1732
RightForeArm  4.08848 34.2965 7.43755
RightHand  0.430323 -9.50895 -12.9244
LeftUpLeg  -17.3761 -5.68501 3.90681
LeftLeg  21.6212 0.171918 0.59165
LeftFoot  -5.95216 0.365114 -6.99486
LeftToes  -7.12384e-010 -7.51861e-011 -8.34901e-011
377
root  -19.268 38.9493 1.94239 177.655 66.9298 175.771
RightUpLeg  -16.5944 17.5901 -9.3334
RightLeg  54.0442 -2.94876 -4.75503
RightFoot  -10.9108 -0.0800487 1.62154
RightToes  -3.4386e-010 1.2921e-014 -6.02303e-014
Spine  -2.51821 -5.96637 -10.2746
Spine1  4.34473 -7.5049 5.18527
HEad  14.043 -16.39 8.18726
LeftShoulder1  2.3424 -8.74787 -12.6235
LeftArm  -1.37263 -40.5126 -56.4054
LeftForeArm  10.4637 -9.42715 -10.0575
LeftHand  -0.0423411 3.1318 1.35361
RightShoulder  1.52733 1.90831 23.0998
RightArm  -18.041 20.6726 49.247
RightForeArm  2.1763 32.7144 7.11911
RightHand  0.519557 -9.56018 -15.1161
LeftUpLeg  -16.6107 -3.64819 2.61642
LeftLeg  20.9067 1.54406 1.40979
LeftFoot  -5.79473 0.314812 -5.77919
LeftToes  -7.12384e-010 -7.51861e-011 -8.34901e-011
378
root  -19.3206 39.0648 1.17833 178.741 70.0531 176.168
RightUpLeg  -17.8266 15.2964 -7.96744
RightLeg  50.4651 -1.84444 -2.74737
RightFoot  -12.4953 -0.0593273 2.51814
RightToes  -3.4386e-010 1.2921e-014 -6.02303e-014
Spine  -2.09933 -5.94478 -10.331
Spine1  4.10847 -7.6122 5.95205
HEad  13.1978 -14.4032 8.08721
LeftShoulder1  2.33302 -9.25336 -11.6735
LeftArm  -3.24523 -42.3742 -53.7801
LeftForeArm  7.76836 -9.86323 -9.68087
LeftHand  -0.0211139 3.17741 0.208891
RightShoulder  1.61588 2.28042 22.7244
RightArm  -17.503 23.8355 49.2643
RightForeArm  2.6204 31.0558 6.66302
RightHand  0.526716 -9.59857 -15.1735
LeftUpLeg  -16.4689 -1.67339 1.79391
LeftLeg  20.7029 2.73425 1.97722
LeftFoot  -6.09488 0.263882 -4.96044
LeftToes  -7.12384e-010 -7.51861e-011 -8.34901e-011
379
root  -19.3705 39.188 0.475877 -179.615 73.0292 177.126
RightUpLeg  -18.3521 12.7935 -6.23205
RightLeg  45.4728 -0.340587 -0.677784
RightFoot  -14.0977 -0.00684377 3.68677
RightToes  -3.4386e-010 1.2921e-014 -6.02303e-014
Spine  -1.74713 -5.99037 -10.3356
Spine1  4.12536 -7.79178 6.83363
HEad  12.2725 -12.363 8.00158
LeftShoulder1  2.29448 -9.63212 -10.7376
LeftArm  -5.99159 -43.8855 -50.7745
LeftForeArm  5.14843 -9.85626 -9.31524
LeftHand  -0.00669098 3.08413 -0.528269
RightShoulder  1.75688 2.8454 22.3546
RightArm  -17.6389 26.7915 49.4661
RightForeArm  4.09676 29.5784 6.21258
RightHand  0.513972 -9.6249 -14.7576
LeftUpLeg  -16.3902 -0.283141 1.22146
LeftLeg  20.3529 4.36305 2.60757
LeftFoot  -6.06918 0.207438 -3.71406
LeftToes  -7.12384e-010 -7.51861e-011 -8.34901e-011
380
root  -19.4445 39.3114 -0.171532 -176.626 76.0169 179.128
RightUpLeg  -18.7774 10.9106 -4.25454
RightLeg  39.6064 0.772518 0.416459
RightFoot  -14.7203 0.0615802 5.47
RightToes  -3.4386e-010 1.2921e-014 -6.02303e-014
Spine  -1.28122 -5.92205 -10.0094
Spine1  3.6124 -7.79028 7.73506
HEad  11.6233 -10.272 7.69312
LeftShoulder1  2.26603 -10.0716 -9.8507
LeftArm  -8.5643 -44.6291 -47.5961
LeftForeArm  1.6419 -9.82895 -8.9991
LeftHand  0.00479044 3.06544 -1.11433
RightShoulder  1.83419 3.15154 22.1964
RightArm  -17.6729 29.5378 49.7912
RightForeArm  5.08637 28.2344 5.83439
RightHand  0.434655 -9.33622 -13.5663
LeftUpLeg  -16.7723 0.448996 0.917386
LeftLeg  19.9286 6.58457 3.39995
LeftFoot  -5.92391 0.179814 -3.0488
LeftToes  -7.12384e-010 -7.51861e-011 -8.34901e-011
381
root  -19.5088 39.4333 -0.765826 -171.759 78.8494 -176.927
RightUpLeg  -18.6618 10.3904 -2.26561
RightLeg  33.1186 1.45198 0.780269
RightFoot  -15.1636 0.100763 6.09858
RightToes  -3.4386e-010 1.2921e-014 -6.02303e-014
Spine  -0.936109 -5.78225 -8.99379
Spine1  3.42513 -7.63032 8.00591
HEad  10.924 -8.15118 7.24981
LeftShoulder1  2.1932 -10.3611 -8.85403
LeftArm  -10.2572 -44.8108 -44.4936
LeftForeArm  -2.27013 -10.289 -8.71931
LeftHand  0.0320324 2.92679 -2.34122
RightShoulder  1.87753 3.3952 21.7904
RightArm  -17.9988 31.5742 50.4735
RightForeArm  5.48651 27.8547 5.72295
RightHand  0.368039 -9.40079 -11.5455
LeftUpLeg  -17.1297 1.34075 0.868979
LeftLeg  19.4164 8.51145 3.96933
LeftFoot  -5.83764 0.155127 -2.49792
LeftToes  -7.12384e-010 -7.51861e-011 -8.34901e-011
382
root  -19.5337 39.5658 -1.29136 -166.299 81.4382 -172.222
RightUpLeg  -17.8782 10.8089 -0.809213
RightLeg  26.4482 1.98174 0.852427
RightFoot  -15.7093 0.150758 6.74236
RightToes  -3.4386e-010 1.2921e-014 -6.02303e-014
Spine  -0.883851 -5.63829 -8.09495
Spine1  3.71643 -7.48263 8.10495
HEad  10.4444 -6.11587 6.56133
LeftShoulder1  2.11862 -10.3679 -8.23449
LeftArm  -10.1207 -44.4128 -41.4795
LeftForeArm  -6.51485 -11.6495 -8.5655
LeftHand  0.0615659 2.78358 -3.52846
RightShoulder  1.93843 3.71443 21.3633
RightArm  -17.3366 33.0447 50.9553
RightForeArm  4.8292 28.1299 5.82353
RightHand  0.203129 -8.95186 -7.80461
LeftUpLeg  -17.0796 2.00852 0.64372
LeftLeg  18.4302 10.5352 4.45594
LeftFoot  -5.55939 0.143329 -2.17681
LeftToes  -7.12384e-010 -7.51861e-011 -8.34901e-011
